<mxfile host="drawio-plugin" modified="2021-05-18T17:05:45.817Z" agent="5.0 (Windows NT 6.2; Win64; x64) AppleWebKit/537.36 (KHTML, like Gecko) Chrome/87.0.4280.141 Safari/537.36" etag="OEMIxmgTiAuM9iBPMKOC" version="14.6.6" type="embed"><diagram id="23iRSUPoRavnBvh4doch" name="Page-1"><mxGraphModel dx="876" dy="431" grid="1" gridSize="10" guides="1" tooltips="1" connect="1" arrows="1" fold="1" page="1" pageScale="1" pageWidth="827" pageHeight="1169" math="0" shadow="0"><root><mxCell id="0"/><mxCell id="1" parent="0"/><mxCell id="103" value="Use" style="endArrow=open;endSize=12;dashed=1;html=1;entryX=0.5;entryY=1;entryDx=0;entryDy=0;entryPerimeter=0;fillColor=#e3c800;strokeColor=#B09500;exitX=0.5;exitY=1;exitDx=0;exitDy=0;exitPerimeter=0;" edge="1" parent="1" source="9" target="58"><mxGeometry x="0.7843" width="160" relative="1" as="geometry"><mxPoint x="60" y="270" as="sourcePoint"/><mxPoint x="240" y="290" as="targetPoint"/><Array as="points"><mxPoint x="65" y="270"/><mxPoint x="535" y="270"/></Array><mxPoint as="offset"/></mxGeometry></mxCell><mxCell id="98" value="" style="endArrow=none;dashed=1;endFill=0;endSize=12;html=1;exitX=0.5;exitY=0;exitDx=0;exitDy=0;" edge="1" parent="1" source="84"><mxGeometry width="160" relative="1" as="geometry"><mxPoint x="590" y="279.9999999999999" as="sourcePoint"/><mxPoint x="535" y="160" as="targetPoint"/><Array as="points"><mxPoint x="535" y="280"/><mxPoint x="490" y="280"/><mxPoint x="440" y="280"/><mxPoint x="440" y="160"/><mxPoint x="535" y="160"/><mxPoint x="535" y="140"/></Array></mxGeometry></mxCell><mxCell id="2" value="«interface»&#10;AbstractFactory" style="swimlane;fontStyle=1;align=center;verticalAlign=top;childLayout=stackLayout;horizontal=1;startSize=40;horizontalStack=0;resizeParent=1;resizeParentMax=0;resizeLast=0;collapsible=1;marginBottom=0;" vertex="1" parent="1"><mxGeometry x="60" y="40" width="140" height="90" as="geometry"><mxRectangle x="60" y="40" width="140" height="40" as="alternateBounds"/></mxGeometry></mxCell><mxCell id="4" value="" style="line;strokeWidth=1;fillColor=none;align=left;verticalAlign=middle;spacingTop=-1;spacingLeft=3;spacingRight=3;rotatable=0;labelPosition=right;points=[];portConstraint=eastwest;" vertex="1" parent="2"><mxGeometry y="40" width="140" height="8" as="geometry"/></mxCell><mxCell id="5" value="+ create_product_a()&#10;+ create_product_b()" style="text;strokeColor=none;fillColor=none;align=left;verticalAlign=top;spacingLeft=4;spacingRight=4;overflow=hidden;rotatable=0;points=[[0,0.5],[1,0.5]];portConstraint=eastwest;" vertex="1" parent="2"><mxGeometry y="48" width="140" height="42" as="geometry"/></mxCell><mxCell id="6" value="ConcreteFactory1" style="swimlane;fontStyle=1;align=center;verticalAlign=top;childLayout=stackLayout;horizontal=1;startSize=26;horizontalStack=0;resizeParent=1;resizeParentMax=0;resizeLast=0;collapsible=1;marginBottom=0;" vertex="1" parent="1"><mxGeometry y="170" width="130" height="80" as="geometry"><mxRectangle y="150" width="130" height="26" as="alternateBounds"/></mxGeometry></mxCell><mxCell id="8" value="" style="line;strokeWidth=1;fillColor=none;align=left;verticalAlign=middle;spacingTop=-1;spacingLeft=3;spacingRight=3;rotatable=0;labelPosition=right;points=[];portConstraint=eastwest;" vertex="1" parent="6"><mxGeometry y="26" width="130" height="8" as="geometry"/></mxCell><mxCell id="9" value="+ create_product_a()&#10;+ create_product_b()" style="text;strokeColor=none;fillColor=none;align=left;verticalAlign=top;spacingLeft=4;spacingRight=4;overflow=hidden;rotatable=0;points=[[0,0.5],[1,0.5]];portConstraint=eastwest;" vertex="1" parent="6"><mxGeometry y="34" width="130" height="46" as="geometry"/></mxCell><mxCell id="10" value="ConcreteFactory2" style="swimlane;fontStyle=1;align=center;verticalAlign=top;childLayout=stackLayout;horizontal=1;startSize=26;horizontalStack=0;resizeParent=1;resizeParentMax=0;resizeLast=0;collapsible=1;marginBottom=0;" vertex="1" parent="1"><mxGeometry x="130" y="170" width="130" height="80" as="geometry"><mxRectangle x="150" y="150" width="130" height="26" as="alternateBounds"/></mxGeometry></mxCell><mxCell id="12" value="" style="line;strokeWidth=1;fillColor=none;align=left;verticalAlign=middle;spacingTop=-1;spacingLeft=3;spacingRight=3;rotatable=0;labelPosition=right;points=[];portConstraint=eastwest;" vertex="1" parent="10"><mxGeometry y="26" width="130" height="8" as="geometry"/></mxCell><mxCell id="13" value="+ create_product_a()&#10;+ create_product_b()" style="text;strokeColor=none;fillColor=none;align=left;verticalAlign=top;spacingLeft=4;spacingRight=4;overflow=hidden;rotatable=0;points=[[0,0.5],[1,0.5]];portConstraint=eastwest;" vertex="1" parent="10"><mxGeometry y="34" width="130" height="46" as="geometry"/></mxCell><mxCell id="32" value="«interface»&#10;AbstractProductA" style="swimlane;fontStyle=1;align=center;verticalAlign=top;childLayout=stackLayout;horizontal=1;startSize=40;horizontalStack=0;resizeParent=1;resizeParentMax=0;resizeLast=0;collapsible=1;marginBottom=0;" vertex="1" parent="1"><mxGeometry x="280" y="40" width="140" height="90" as="geometry"><mxRectangle x="280" y="20" width="140" height="26" as="alternateBounds"/></mxGeometry></mxCell><mxCell id="34" value="" style="line;strokeWidth=1;fillColor=none;align=left;verticalAlign=middle;spacingTop=-1;spacingLeft=3;spacingRight=3;rotatable=0;labelPosition=right;points=[];portConstraint=eastwest;" vertex="1" parent="32"><mxGeometry y="40" width="140" height="8" as="geometry"/></mxCell><mxCell id="35" value="+ useful_function_a()" style="text;strokeColor=none;fillColor=none;align=left;verticalAlign=top;spacingLeft=4;spacingRight=4;overflow=hidden;rotatable=0;points=[[0,0.5],[1,0.5]];portConstraint=eastwest;" vertex="1" parent="32"><mxGeometry y="48" width="140" height="42" as="geometry"/></mxCell><mxCell id="36" value="«interface»&#10;AbstractProductB" style="swimlane;fontStyle=1;align=center;verticalAlign=top;childLayout=stackLayout;horizontal=1;startSize=40;horizontalStack=0;resizeParent=1;resizeParentMax=0;resizeLast=0;collapsible=1;marginBottom=0;" vertex="1" parent="1"><mxGeometry x="450" y="40" width="170" height="90" as="geometry"><mxRectangle x="420" y="20" width="140" height="26" as="alternateBounds"/></mxGeometry></mxCell><mxCell id="37" value="" style="line;strokeWidth=1;fillColor=none;align=left;verticalAlign=middle;spacingTop=-1;spacingLeft=3;spacingRight=3;rotatable=0;labelPosition=right;points=[];portConstraint=eastwest;" vertex="1" parent="36"><mxGeometry y="40" width="170" height="8" as="geometry"/></mxCell><mxCell id="38" value="+ useful_function_b()&#10;+ another_useful-function_b()" style="text;strokeColor=none;fillColor=none;align=left;verticalAlign=top;spacingLeft=4;spacingRight=4;overflow=hidden;rotatable=0;points=[[0,0.5],[1,0.5]];portConstraint=eastwest;" vertex="1" parent="36"><mxGeometry y="48" width="170" height="42" as="geometry"/></mxCell><mxCell id="39" value="ConcreteProductA1" style="swimlane;fontStyle=1;align=center;verticalAlign=top;childLayout=stackLayout;horizontal=1;startSize=26;horizontalStack=0;resizeParent=1;resizeParentMax=0;resizeLast=0;collapsible=1;marginBottom=0;" vertex="1" parent="1"><mxGeometry x="280" y="170" width="140" height="80" as="geometry"><mxRectangle x="280" y="170" width="140" height="26" as="alternateBounds"/></mxGeometry></mxCell><mxCell id="41" value="" style="line;strokeWidth=1;fillColor=none;align=left;verticalAlign=middle;spacingTop=-1;spacingLeft=3;spacingRight=3;rotatable=0;labelPosition=right;points=[];portConstraint=eastwest;" vertex="1" parent="39"><mxGeometry y="26" width="140" height="8" as="geometry"/></mxCell><mxCell id="42" value="+ useful_function_a()" style="text;strokeColor=none;fillColor=none;align=left;verticalAlign=top;spacingLeft=4;spacingRight=4;overflow=hidden;rotatable=0;points=[[0,0.5],[1,0.5]];portConstraint=eastwest;" vertex="1" parent="39"><mxGeometry y="34" width="140" height="46" as="geometry"/></mxCell><mxCell id="65" value="«interface»&lt;br&gt;&lt;b&gt;Client&lt;/b&gt;" style="html=1;" vertex="1" parent="1"><mxGeometry x="640" y="40" width="80" height="50" as="geometry"/></mxCell><mxCell id="81" value="ConcreteProductA2" style="swimlane;fontStyle=1;align=center;verticalAlign=top;childLayout=stackLayout;horizontal=1;startSize=26;horizontalStack=0;resizeParent=1;resizeParentMax=0;resizeLast=0;collapsible=1;marginBottom=0;" vertex="1" parent="1"><mxGeometry x="280" y="290" width="140" height="80" as="geometry"><mxRectangle x="280" y="260" width="140" height="26" as="alternateBounds"/></mxGeometry></mxCell><mxCell id="82" value="" style="line;strokeWidth=1;fillColor=none;align=left;verticalAlign=middle;spacingTop=-1;spacingLeft=3;spacingRight=3;rotatable=0;labelPosition=right;points=[];portConstraint=eastwest;" vertex="1" parent="81"><mxGeometry y="26" width="140" height="8" as="geometry"/></mxCell><mxCell id="83" value="+ useful_function_a()" style="text;strokeColor=none;fillColor=none;align=left;verticalAlign=top;spacingLeft=4;spacingRight=4;overflow=hidden;rotatable=0;points=[[0,0.5],[1,0.5]];portConstraint=eastwest;" vertex="1" parent="81"><mxGeometry y="34" width="140" height="46" as="geometry"/></mxCell><mxCell id="84" value="ConcreteProductB2" style="swimlane;fontStyle=1;align=center;verticalAlign=top;childLayout=stackLayout;horizontal=1;startSize=26;horizontalStack=0;resizeParent=1;resizeParentMax=0;resizeLast=0;collapsible=1;marginBottom=0;" vertex="1" parent="1"><mxGeometry x="450" y="290" width="170" height="80" as="geometry"><mxRectangle x="420" y="260" width="170" height="26" as="alternateBounds"/></mxGeometry></mxCell><mxCell id="85" value="" style="line;strokeWidth=1;fillColor=none;align=left;verticalAlign=middle;spacingTop=-1;spacingLeft=3;spacingRight=3;rotatable=0;labelPosition=right;points=[];portConstraint=eastwest;" vertex="1" parent="84"><mxGeometry y="26" width="170" height="8" as="geometry"/></mxCell><mxCell id="86" value="+ useful_function_b()&#10;+ another_useful-function_b()" style="text;strokeColor=none;fillColor=none;align=left;verticalAlign=top;spacingLeft=4;spacingRight=4;overflow=hidden;rotatable=0;points=[[0,0.5],[1,0.5]];portConstraint=eastwest;" vertex="1" parent="84"><mxGeometry y="34" width="170" height="46" as="geometry"/></mxCell><mxCell id="89" value="" style="endArrow=block;dashed=1;endFill=0;endSize=12;html=1;exitX=0.5;exitY=0;exitDx=0;exitDy=0;entryX=0.5;entryY=1;entryDx=0;entryDy=0;entryPerimeter=0;" edge="1" parent="1" source="6" target="5"><mxGeometry width="160" relative="1" as="geometry"><mxPoint x="60" y="150" as="sourcePoint"/><mxPoint x="220" y="150" as="targetPoint"/><Array as="points"><mxPoint x="65" y="160"/><mxPoint x="130" y="160"/></Array></mxGeometry></mxCell><mxCell id="90" value="" style="endArrow=block;dashed=1;endFill=0;endSize=12;html=1;exitX=0.5;exitY=0;exitDx=0;exitDy=0;" edge="1" parent="1" source="10"><mxGeometry width="160" relative="1" as="geometry"><mxPoint x="190" y="160" as="sourcePoint"/><mxPoint x="130" y="130" as="targetPoint"/><Array as="points"><mxPoint x="195" y="160"/><mxPoint x="130" y="160"/></Array></mxGeometry></mxCell><mxCell id="91" value="" style="endArrow=open;endFill=1;endSize=12;html=1;exitX=0.5;exitY=0;exitDx=0;exitDy=0;entryX=0.5;entryY=0;entryDx=0;entryDy=0;" edge="1" parent="1" source="65" target="2"><mxGeometry width="160" relative="1" as="geometry"><mxPoint x="640" y="10" as="sourcePoint"/><mxPoint x="800" y="10" as="targetPoint"/><Array as="points"><mxPoint x="680" y="20"/><mxPoint x="130" y="20"/></Array></mxGeometry></mxCell><mxCell id="92" value="" style="endArrow=open;endFill=1;endSize=12;html=1;entryX=0.5;entryY=0;entryDx=0;entryDy=0;" edge="1" parent="1" target="36"><mxGeometry width="160" relative="1" as="geometry"><mxPoint x="610" y="20" as="sourcePoint"/><mxPoint x="800" y="40" as="targetPoint"/><Array as="points"><mxPoint x="535" y="20"/></Array></mxGeometry></mxCell><mxCell id="93" value="" style="endArrow=open;endFill=1;endSize=12;html=1;entryX=0.5;entryY=0;entryDx=0;entryDy=0;exitX=0.5;exitY=0;exitDx=0;exitDy=0;" edge="1" parent="1" source="65" target="32"><mxGeometry width="160" relative="1" as="geometry"><mxPoint x="640" y="40" as="sourcePoint"/><mxPoint x="800" y="40" as="targetPoint"/><Array as="points"><mxPoint x="680" y="20"/><mxPoint x="350" y="20"/></Array></mxGeometry></mxCell><mxCell id="94" value="" style="endArrow=block;dashed=1;endFill=0;endSize=12;html=1;exitX=0.5;exitY=0;exitDx=0;exitDy=0;entryX=0.495;entryY=1.004;entryDx=0;entryDy=0;entryPerimeter=0;" edge="1" parent="1" source="39" target="35"><mxGeometry width="160" relative="1" as="geometry"><mxPoint x="350" y="150" as="sourcePoint"/><mxPoint x="510" y="150" as="targetPoint"/></mxGeometry></mxCell><mxCell id="97" value="" style="endArrow=block;dashed=1;endFill=0;endSize=12;html=1;exitX=0.5;exitY=0;exitDx=0;exitDy=0;" edge="1" parent="1" source="81"><mxGeometry width="160" relative="1" as="geometry"><mxPoint x="250" y="294" as="sourcePoint"/><mxPoint x="350" y="130" as="targetPoint"/><Array as="points"><mxPoint x="350" y="280"/><mxPoint x="390" y="280"/><mxPoint x="430" y="280"/><mxPoint x="430" y="210"/><mxPoint x="430" y="160"/><mxPoint x="350" y="160"/></Array></mxGeometry></mxCell><mxCell id="56" value="ConcreteProductB1" style="swimlane;fontStyle=1;align=center;verticalAlign=top;childLayout=stackLayout;horizontal=1;startSize=26;horizontalStack=0;resizeParent=1;resizeParentMax=0;resizeLast=0;collapsible=1;marginBottom=0;" vertex="1" parent="1"><mxGeometry x="450" y="170" width="170" height="80" as="geometry"><mxRectangle x="420" y="120" width="150" height="26" as="alternateBounds"/></mxGeometry></mxCell><mxCell id="57" value="" style="line;strokeWidth=1;fillColor=none;align=left;verticalAlign=middle;spacingTop=-1;spacingLeft=3;spacingRight=3;rotatable=0;labelPosition=right;points=[];portConstraint=eastwest;" vertex="1" parent="56"><mxGeometry y="26" width="170" height="8" as="geometry"/></mxCell><mxCell id="58" value="+ useful_function_b()&#10;+ another_useful-function_b()" style="text;strokeColor=none;fillColor=none;align=left;verticalAlign=top;spacingLeft=4;spacingRight=4;overflow=hidden;rotatable=0;points=[[0,0.5],[1,0.5]];portConstraint=eastwest;" vertex="1" parent="56"><mxGeometry y="34" width="170" height="46" as="geometry"/></mxCell><mxCell id="95" value="" style="endArrow=block;dashed=1;endFill=0;endSize=12;html=1;exitX=0.5;exitY=0;exitDx=0;exitDy=0;" edge="1" parent="1" source="56" target="38"><mxGeometry width="160" relative="1" as="geometry"><mxPoint x="500" y="150" as="sourcePoint"/><mxPoint x="660" y="150" as="targetPoint"/></mxGeometry></mxCell><mxCell id="102" value="Use" style="endArrow=open;endSize=12;dashed=1;html=1;exitX=0.5;exitY=1;exitDx=0;exitDy=0;exitPerimeter=0;entryX=0.524;entryY=1.043;entryDx=0;entryDy=0;entryPerimeter=0;fillColor=#fa6800;strokeColor=#C73500;" edge="1" parent="1" source="13" target="86"><mxGeometry x="0.8127" width="160" relative="1" as="geometry"><mxPoint x="200" y="250" as="sourcePoint"/><mxPoint x="540" y="380" as="targetPoint"/><Array as="points"><mxPoint x="195" y="390"/><mxPoint x="539" y="390"/></Array><mxPoint as="offset"/></mxGeometry></mxCell><mxCell id="99" value="Use" style="endArrow=open;endSize=12;dashed=1;html=1;entryX=0.498;entryY=1;entryDx=0;entryDy=0;entryPerimeter=0;fillColor=#e3c800;strokeColor=#B09500;" edge="1" parent="1" target="42"><mxGeometry x="0.6875" width="160" relative="1" as="geometry"><mxPoint x="80" y="270" as="sourcePoint"/><mxPoint x="210" y="290" as="targetPoint"/><Array as="points"><mxPoint x="65" y="270"/><mxPoint x="270" y="270"/><mxPoint x="350" y="270"/></Array><mxPoint as="offset"/></mxGeometry></mxCell><mxCell id="100" value="Use" style="endArrow=open;endSize=12;dashed=1;html=1;exitX=0.5;exitY=1;exitDx=0;exitDy=0;exitPerimeter=0;entryX=0.5;entryY=1;entryDx=0;entryDy=0;fillColor=#fa6800;strokeColor=#C73500;entryPerimeter=0;" edge="1" parent="1" source="13" target="83"><mxGeometry x="0.6825" width="160" relative="1" as="geometry"><mxPoint x="170" y="400" as="sourcePoint"/><mxPoint x="330" y="400" as="targetPoint"/><Array as="points"><mxPoint x="195" y="390"/><mxPoint x="350" y="390"/></Array><mxPoint as="offset"/></mxGeometry></mxCell></root></mxGraphModel></diagram></mxfile>